<?xml version="1.0" encoding="UTF-8"?>
<svg version="1.1" viewBox="0 0 1096 1136" width="274" height="284" xmlns="http://www.w3.org/2000/svg">
<path transform="translate(487,108)" d="m0 0h41l32 2 26 4 45 9 26 8 16 6 36 15 24 11 29 14 21 11 25 15 24 16 14 10 28 22 13 11 7 6 7 8 12 12 11 14 13 18 13 20 9 16 13 27 7 19 7 29 3 17 2 31v35l-1 23-3 21-6 27-7 26-9 24-10 23-18 39-11 23-14 24-15 26-11 18-16 23-8 12-11 15-10 13-10 14-10 13-13 16-9 10-9 11-7 7-1 2h-2l-2 4-16 16-8 7-9 9-14 11-14 10-15 10-23 12-20 9-19 7-28 7-32 5-9 1h-45l-38-7-34-9-21-8-23-10-26-13-39-22-23-15-14-9-18-13-18-14-16-12-11-9-11-10-8-7-13-12-10-10-8-7-23-23-7-8-10-11-14-19-13-21-12-23-11-27-7-23-5-26-2-20v-39l3-31 6-36 7-30 11-38 9-26 12-29 9-20 15-31 8-14 14-24 14-23 16-24 12-15 10-14 13-15 9-11 18-20 9-9 8-7 10-9 17-13 17-12 16-9 23-12 29-11 23-6 31-6zm69 93-17 3-16 5-13 8-10 8-6 5v2h-2l-9 11-10 16-8 19-4 15-1 8v25l4 17 6 15 8 12 11 12 9 8 16 12 14 8 11 5 9 3 22 2 18-1 17-5 18-8 15-9 11-9 7-6 9-11 8-13 5-15 3-17 1-22-1-20-4-16-5-12-7-12-9-10-12-12-10-7-13-6-16-5-10-2-10-1zm41 271-31 2-23 4-25 6-17 6-17 9-13 10-10 9-8 7-10 11-7 10-6 11-4 11-5 23-2 12v23l2 12 5 12 5 6 6 1 12-2 2-3-5 20-3 5h-5l-14-9-10-8-13-12-36-36-7-8-10-12-12-17-17-28-10-19-12-27-6-9-4-4-10-2-6 3-6 7-5 14-8 29-5 24-2 19-1 26 2 28 4 23 6 21 11 26 10 20 12 20 12 16 11 13 13 13 10 8 14 10 20 12 17 9 25 10 18 5 23 4 11 1h62l24-2 25-5 27-9 20-9 16-9 20-13 14-10 13-11 10-8v-2l4-2 14-15 13-16 12-18 13-21 13-23 13-28 11-27 9-25 10-32 6-24 6-32 2-19-3-7-6-4-4-1-119-3z" fill="#1EB89F"/>
<path transform="translate(201,371)" d="m0 0 5 4 6 1v2l3-3-4-2 1-2 5 2 2 1v2h2l1 4 6 3-2 6-1 4 5 5 1 3 4 1-2-5-2-3 2-6 8 8 4 5v2h2v2l6 1v2l3 1 4 9 4 4 6 3 11 1 3 1 13-5 5-6h2v3h-2v3h-2l-2 6-2 4h-2v2l-3 2h12v-2h2l1 4 3 3-5-1v7l3 1-1 2 2 4v14l5 6-2 2-5 1-2-3-4-2v-2h-2l-1-3-6-4-1-2-5 1-2-5-3 1v-5l-3 1 1 4 8 11 4 3 5 2 6 5 4 6 3 2v3h2v2l5 2 6 7v2l5 2 6 8 5 5 4 6 3 6 11 19 3 5 3 2v2h2l2 3 3 1v2l3-1v3l8-1 3-3 3-7 1-8 3-7 8-8h2l1-7 5-1 1 10-4 12-2 16-8 18 4-3 6-18 2-5 2-6 6-8 2-4 5-5 5-4 5-2-2 3v7l-2 2h-2l-4 2-5 6-2 9h1l-1 12-6 17-4 10-2 8-3 1 1 2 2 1-2 3 3-3h2l1-2h1l3-11 1-4 1-9 5-15 2-8 4-8 4-5h2l1-4 10-10v-2l18-9 5-5 4-1 1-3h2v-2l6-2-2 4-11 10-8 7-9 10-7 10-6 11-4 11-5 23-2 12v23l2 12 5 12 4 5 6 1 12-2 2-5 1 3-5 20-4 6h-5l-14-9-10-8-13-12-37-37-7-8-10-12-12-17-17-28-10-19-12-27-6-9-3-3-10-2-6 3-5 6-5 14-8 29-5 24-2 19-1 26 2 28 4 23 6 21 11 26 10 20 12 20 12 16 11 13 12 12 10 8 14 10 20 12 17 9 25 10 18 5 23 4 11 1h62l24-2 25-5 27-9 20-9 16-9 17-11 6 1 4 5-4 3-5 1v2l-4 3h-3v2l-5 3-1 4-4 1-5 5 3 1-14 11-10 4 3 1 23-11 3-3 5-2 9-4-2 5-3 4-2 4 1 5-2 3v3l-3-1-1 6 5-3 17-3 12-3h4v-2l4-3 8-2-3-9 5-6 3 4 1 1 4 1 2-1 1 5 3 8 6 2v-3h2l2-5 3-1v-2l3-2h7l2-2h7l5 1v8l1 6v6l3 1-2 2-1 7h5l1 3h10l9-4h2l2-5 4-4 4-2 6-7 7-4 5-5 5-2-2 5-4 4h-2v2h-2v4l8-5-1 4-5 5-9 13-9 6-7 10-3 1-1-1-3 7-9 5-2 4-6 3v2l12-6h2v-2l10-4 9-8 7-4 6-8 5-5 3-2-1 4-3 4-3 5-9 7-6 4-7 10-11 9-4 8 7-6 7-2 2-4 6-1-5 6-4 1 1 3-4 4h-2l-1 6-9 10-2 5-6 9 8-6h2l2-5 8-9h2l2-4h2v-2l5-4 1-2 6-2 1-3 3-1 4-5 4-2 6-8 1-5 7-6 1-2h3v-2h2l2-7v-2l-4 2-5 4-3 6-2 5-6-1-1 4-5 1-10 10-2-1 5-5 12-14 5-5 6-4 6-10 6-7 6-8 5-2 6-1 3-1 8-10 1-3h2l1-5 1-3 4-1-1-3 4-4 6-3-1 5-10 14-8 11-10 13-10 14-10 13-13 16-9 10-9 11-7 7-1 2h-2l-2 4-16 16-8 7-9 9-14 11-14 10-15 10-23 12-20 9-19 7-28 7-32 5-9 1h-45l-38-7-34-9-21-8-23-10-26-13-39-22-23-15-14-9-18-13-18-14-16-12-11-9-11-10-8-7-13-12-10-10-8-7-23-23-7-8-10-11-14-19-13-21-12-23-11-27-7-23-5-26-2-20v-39l3-31 6-36 7-30 11-38 5-15 5-3 3-7h2l-1-3 2-6-1-2h3l1-5 1 4-1 10-3 4 3-3h2l3-12 4-10 3-4 2-7 6-7 6-11 1 4-3 11-2 10 6-10 6-9 4-8 7-12h1l-1 8h-2l-2 9-1 4h-2l-2 12-4 7-1 3 7-11 1 2 4 1 5-10 2-5 3-5h2l-1-4 2-5 5-4 6-3-3-5z" fill="#159C9F"/>
<path transform="translate(534,577)" d="m0 0h9l-2 4-13 8-22 12-15 10-14 11-12 10-5 3 2-11 5-9 9-10 13-9 25-12z" fill="#1DA1A2"/>
<path transform="translate(423,643)" d="m0 0 8 12 6 1 12-2 2-5 1 3-5 20-4 6h-5l-14-9 2-2-1-6-3-5 1-4-1-2v-6z" fill="#2FBDA6"/>
<path transform="translate(281,481)" d="m0 0 5 2 5 3 4 1 5 5 4 9 2 6 4 6 3 10 3 7 2 5 1 5-1 2 4 2 2 5 1 2h-3l-2-2-3-4-9-17-12-27-6-9-3-3-9-2z" fill="#21B8A0"/>
<path transform="translate(426,553)" d="m0 0 5 1v3l-5 3-2 7h-2l-1 6-2 10h-2l-1 25-3 12-2 14-2 1v-18l2-20 4-19 3-7 3-13 2-4z" fill="#1EB89F"/>
<path transform="translate(534,577)" d="m0 0h9l-2 4-13 8-11 6-8-2-1-4-3-1 22-9z" fill="#FEFEFE"/>
<path transform="translate(479,603)" d="m0 0m-2 1 2 1-2 5h-2l1 3 4-1v-2l4-1 2 3-4 1v5l-13 11-9 6 2-11 5-9 9-10z" fill="#41C1AE"/>
<path transform="translate(737,719)" d="m0 0 2 1-1 2h-2v2l-2 1-3 9-3 3-3 7-4 2-6 7-8 7-7 7-6 7-6 5-5 5-4 2-1 2-3-1 5-5 12-11h2v-2l7-6 7-8 9-10 12-16 6-9z" fill="#27A6A6"/>
<path transform="translate(451,649)" d="m0 0 1 3-5 20-3 4-2-6 1-1-3-1h-5l-3-4-2-7 1-1 13-1 5-1z" fill="#FEFEFE"/>
<path transform="translate(503,589)" d="m0 0h5l1 4 6 1v2l-12 7-5-2-1-4-1 2-8 1h-2l-1 4-5-1 4-4z" fill="#4CC4B3"/>
<path transform="translate(633,814)" d="m0 0h2l-2 4-4 2v2h-3v2l-7 2-5 2-8 4-3 3-7 2-4-4 16-6 19-9z" fill="#20B8A0"/>
<path transform="translate(131,434)" d="m0 0 4 2-2 9-2 1-3 7-4 2 1-5z" fill="#26BAA2"/>
<path transform="translate(317,470)" d="m0 0h3l2 9 1 1v7l-5-2-1-4z" fill="#159C9F"/>
<path transform="translate(748,701)" d="m0 0 2 1-1 3-2 1-4 7-2 4-4-1 9-14z" fill="#24A6A4"/>
<path transform="translate(827,854)" d="m0 0h3v9l-4 2-3-3h2l1-5-2-1z" fill="#1DB79F"/>
<path transform="translate(560,842)" d="m0 0h5l-1 3-9 2h-2l-1-3z" fill="#28B8A3"/>
<path transform="translate(354,529)" d="m0 0 5 2 3 3-2 4-6-4-1-4z" fill="#159C9F"/>
<path transform="translate(261,423)" d="m0 0 3 1 1 7-7-3 1-4z" fill="#1EB89F"/>
<path transform="translate(534,413)" d="m0 0 11 3-1 2-8-1z" fill="#2FAAA9"/>
<path transform="translate(275,725)" d="m0 0 4 2 4 8-2 2z" fill="#1CB49F"/>
<path transform="translate(379,519)" d="m0 0h2l-2 5-5 1 2-5z" fill="#159C9F"/>
<path transform="translate(307,384)" d="m0 0 3 1v7l-3 3-1-8z" fill="#159C9F"/>
<path transform="translate(459,635)" d="m0 0" fill="#FEFEFE"/>
</svg>
