<?xml version="1.0" encoding="UTF-8"?>
<svg version="1.1" viewBox="0 0 2048 591" width="1056" height="305" xmlns="http://www.w3.org/2000/svg">
<path transform="translate(352,86)" d="m0 0h46l24 4 21 5 22 8 25 11 25 13 21 14 16 12 15 14 9 10 13 19 8 15 6 16 5 25 1 13v18l-2 18-6 26-7 20-14 30-10 19-10 17-12 18-14 19-10 13-10 11-7 8-17 17-13 10-15 9-21 9-17 4-15 2h-30l-20-4-17-5-21-9-21-11-19-12-17-12-13-10-11-9-12-11-23-23-12-17-9-16-8-21-4-20v-33l4-26 6-25 9-27 11-25 11-21 15-24 10-13 11-14 9-10 14-14 18-13 23-12 19-6zm44 45-12 3-12 7-8 8-7 10-5 13-1 5v13l3 11 5 10 9 10 11 8 14 6 5 1h16l16-6 10-7 7-6 7-11 3-9 1-7v-18l-2-9-7-12-8-9-11-7-9-3-6-1zm22 131-22 2-17 4-12 5-11 7-14 14-7 11-4 17v16l4 11 5 6 3 1v6l-12-6-15-14-13-13-8-10-12-19-14-28-5-4-4 2-4 6-7 24-2 15v20l3 18 6 18 10 19 10 13 9 10 15 11 16 9 16 6 15 3 13 1h19l19-2 15-4 15-6 15-9 11-8 11-9 11-11 10-14 12-21 10-23 11-33 5-22 1-14-3-3-64-2z" fill="#16A69E"/>
<path transform="translate(352,86)" d="m0 0h46l24 4 21 5 22 8 25 11 25 13 21 14 16 12 15 14 9 10 13 19 8 15 6 16 5 25v20h-2l-1 18-2 12-7 21-6 10-5 6-1-2 6-12-7 5-7 3-9 1-4 3h-3l-1 2-9-1-6-6-3-16-1-11-4-9-5 6-1-4 1-13 1-4v-7l-4-8-6-1-13-1v-1h11l-3-5-3-4v-2l9 1-6-4-12-3v-1l-9-1-7-2h-13l-6-2-11-9-3-4-8 9-5 2-2 5-8 2-6-1-1-2 1-2h2l2-4 9-7 4-2 5-10 1-6 5-10 2-11v-18l-2-9-7-12-4-6 2-1v-3h-2v-2h-2v-2l-7-2v-2l-9-3-12-2-7-2-4 1-7 1-1 1h-5l-4-1-8 5h-5l1-4-7 2-5 1-9 5-8 5-10 5-10-1-12-2-19-1-6-3-4-5-2-5-4 2-7 7v-3l1-4 7-9 3-1v-2l18-12h2v-3l15-6 11-5 4-4z" fill="#1CC0A0"/>
<path transform="translate(1266,185)" d="m0 0h28l4 2 7 30 15 64 13 57 7 26 4 12 4 8h2l8-16 8-24 11-43 10-35 10-38 9-36 4-6 2-1h27l4 8 6 20 8 35 14 50 11 42 10 32 2 4 3 1 5-3 5-13 11-42 12-52 17-70 5-10 5-2h21l3 1v8l-9 36-10 37-11 43-11 42-7 26-12 46-4 9-6 2h-26l-4-5-7-25-13-47-8-29-9-31-7-33-7-25-4-4-6-1-3 11-12 39-9 35-14 52-8 28-7 26-3 6-3 2-12 1h-14l-5-2-4-10-7-25-11-40-11-44-8-30-12-48-10-34-2-10v-6z" fill="#070607"/>
<path transform="translate(722,184)" d="m0 0h34l54 1 18 3 21 5 16 8 12 9 10 9 9 10 8 13 7 16 5 21 1 9v37l-3 19-5 16-11 21-9 12-13 13-15 10-14 7-20 6-17 3-38 1h-58l-2-1-1-168v-37l1-40 2-2zm28 24-7 3-1 2-1 149v40l5 5 6 1h43l17-2 15-4 16-7 12-8 9-8 8-11 6-12 7-23 1-5 1-18v-13l-1-15-4-17-9-19-11-13-14-10-16-8-11-4-12-2-25-1z" fill="#070607"/>
<path transform="translate(1658,258)" d="m0 0h22l14 3 15 5 11 6 12 11 8 10 8 14 4 12 2 13v31l-4 18-8 17-9 12-7 7-11 8-14 7-17 5-6 1h-19l-16-4-12-4-17-9-11-9-9-12-8-16-4-15-1-9v-13l2-20 4-15 8-16 7-9 9-9 14-9 10-5 17-5zm4 24-12 2-14 7-11 9-7 10-4 8-4 14-1 9v9l2 17 5 14 7 11 9 10 11 7 11 4 6 1h17l10-3 13-7 12-11 7-11 5-15 1-6v-26l-3-17-7-14-5-6-11-8-10-5-7-2-8-1z" fill="#070607"/>
<path transform="translate(1916,184)" d="m0 0 21 1 1 1 1 27v126l2 4 6-1 9-9 7-8 20-20 7-8 14-15 9-11 7-6 2-1h26v5l-8 9-9 11-12 12-7 8-15 16-6 7-1 6 4 7 11 14 9 12 13 17 13 18 6 11 2 2v15l-10 2h-7l-5-3-8-12-12-17-13-19-18-27-7-1-10 8-10 10-8 12-1 4v24l-2 17-1 1h-23l-1-1v-118l-1-66v-62z" fill="#070607"/>
<path transform="translate(999,258)" d="m0 0h24l17 2 11 4 11 7 7 7 7 11 4 10 1 4 1 14v22l-1 83-2 10-1 1h-21l-2-1-3-15-2-4-6 3-11 9-18 8-17 5h-17l-16-5-12-6-9-8-5-8-3-9-1-6v-17l3-11 7-11 8-9 11-7 13-6 17-4h39l17 2 2-5v-19l-2-9-6-10-6-5-12-4-7-1h-18l-14 4-10 6-11 10-5 2-12-6-3-4 1-6 8-9 14-10 12-5 11-3zm11 93-22 3-11 4-9 8-6 10-1 4v11l4 10 9 10 12 5 5 1h14l18-4 14-7 9-9 5-10 1-3 1-11v-14l-6-7-3-1z" fill="#070607"/>
<path transform="translate(1173,258)" d="m0 0h20l16 3 16 6 11 7 7 7 2 4v5l-7 7-3 2h-6l-13-10-11-6-15-3h-17l-13 4-8 6-4 8-1 5v9l4 8 14 7 26 7 22 6 15 6 10 6 8 8 5 11 1 4v21l-5 12-6 9-8 8-10 6-16 4-6 1h-26l-16-3-19-7-19-10-5-4-2-6 3-5 5-5 7-6 4 1 11 10 11 7 11 4 18 2 18-1 11-4 6-4 4-5 2-4 1-10-3-10-7-7-12-5-46-10-17-7-10-8-7-10-4-11-1-6v-10l4-13 6-10 7-7 11-7 11-4z" fill="#080608"/>
<path transform="translate(1867,258)" d="m0 0h16l1 1v14l-2 9-5 2-18 2-14 4-8 4-10 9-5 7-2 5-1 8-1 98-1 10-2 2h-22l-2-2-1-10-1-121v-36l2-2 5-1h11l8 1 1 1 2 21 1 1h5l12-12 14-9 13-5z" fill="#070607"/>
<path transform="translate(1408,188)" d="m0 0 3 4-1 10-4 15-5 19-4 13-5 22-3 12-3 9-6 20-7 29-7 24-6 14-3 8-4 5h-7l-5-5-2-4-2-10-4-17-2-7-2-9-2-5-1-5-4-15-7-32v-11l2-4 13 57 9 36 5 15 4 8h2l8-16 8-24 11-43 10-35 10-38 9-36z" fill="#19161A"/>
<path transform="translate(1549,192)" d="m0 0 2 1-1 2h3l1 3-6 20-8 35-4 18-3 9-2 12-5 19-2 9-2 10h-2v9l-2 9-3 9-4 14-3 15-5 5-4 2-6-1-4-8-6-28-3-12 1-4 2 3 9 29 2 4 3 1 5-3 5-13 11-42 12-52 17-70z" fill="#1C191D"/>
<path transform="translate(1916,184)" d="m0 0 1 4-1-2h-2l-1 3h3l1 4v233l-1 3h-2l-2 3v-118l-1-66v-62z" fill="#181519"/>
<path transform="translate(1266,194)" d="m0 0 1 2 5 1 6 24 3 9 4 16 3 9 2 11 7 28 7 26 5 19 5 21 4 15-2 9-2-4-8-30-9-36-8-30-12-48-10-34z" fill="#19161A"/>
<path transform="translate(741,214)" d="m0 0h1v148l-1 39-2-1-2-17 1-5h-2v-9-1l2-1 1-10v-3l-1 5-2 2v-51l1-61 2-6-1-6 2-6z" fill="#19161A"/>
<path transform="translate(1796,261)" d="m0 0h11l-2 2-9 3-1 4v160l-1 2 4 1h-5l-2-2-1-10-1-121v-36l2-2z" fill="#18161A"/>
<path transform="translate(712,201)" d="m0 0 2 2 1 3 1 29v23l-1 18 1 33 1 31v27l-3 9 1 4v15h-2l-1 3-1-134v-37z" fill="#181519"/>
<path transform="translate(1437,261)" d="m0 0 4 2 2 5 1 7 2 6 9 36 6 19 5 16 8 36v3l2 1-1 1 2 6 1 8 1 4 1 7 2 7 2 8-3-3-7-25-13-47-8-29-9-31-7-33z" fill="#19161A"/>
<path transform="translate(1068,278)" d="m0 0 4 4 7 14 2 7 1 14v22l-1 83-2 10-2-3-1-28v-88l-1-14-6-13z" fill="#1A181C"/>
<path transform="translate(1867,258)" d="m0 0h16l1 1v14h-1l-1-9-5-3-6 1-8 2h-4v2l-8 1-7 7h-2v2l-5 3-7 8-6 9-1 3-4 4-4-1-1-10-1-7 1-13h-2l2-7v-2l-2-1 4 1 2 21 1 1h5l12-12 14-9 13-5z" fill="#19161A"/>
<path transform="translate(1720,313)" d="m0 0 5 3 4 15 1 5v25l-2 10-5 13-6 10-9 9-4 1-3-2 10-9 7-11 5-15 1-6v-26l-3-17z" fill="#19161A"/>
<path transform="translate(1830,295)" d="m0 0 3 1-6 7-5 7-2 5-1 8-1 98h-1l-1-13-1-16-2-1v-35l1-3v-4l-1-2v-7h1v-18l3-12h2l2-4 5-8z" fill="#181519"/>
<path transform="translate(1596,294)" d="m0 0 3 1-3 11-5 12-3 11-2 29 2 14-2 6h-2l-2-9-1-9v-13l2-20 4-15 8-16z" fill="#19161A"/>
<path transform="translate(2020,265)" d="m0 0 8 1-2 4-11 8-13 13-7 9-14 14-5 1 1-4 16-17 11-12 9-11z" fill="#19161A"/>
<path transform="translate(1050,387)" d="m0 0 2 3 1 4-2 3-1 3h-2l-2 4-5 5-10 6-12 4-17 2-10-2-6-2v-1h19l18-4 14-7 8-8z" fill="#181519"/>
<path transform="translate(1053,314)" d="m0 0h1l1 19-1 2-5 2-3 1-25-2h-13l-4-2v-2h-10v-1h39l17 2 2-5z" fill="#19161A"/>
<path transform="translate(1937,205)" d="m0 0h1l1 8v24l-1 59-1 26-2-2v-24l1-52v-33z" fill="#181519"/>
<path transform="translate(2010,402)" d="m0 0 4 4 3 4v2h2v3h2l3 6 3 2v3l5 2 2 2 7 3 4 2-14 1-5-3-8-12-11-16z" fill="#171418"/>
<path transform="translate(390,312)" d="m0 0 3 1-21 13-11 7-4 3h-3l1-6 8-7 17-8z" fill="#62C3BD"/>
<path transform="translate(886,282)" d="m0 0h4l1 6 1 19-1 12-1 3h-3l2 4 1 3-4 4h-1l1-23z" fill="#181519"/>
<path transform="translate(1459,263)" d="m0 0h2l10 35 6 23-1 4-2-2-1-7-2-1v-4l-2-2-5-17-2-6-3-22z" fill="#181519"/>
<path transform="translate(1125,285)" d="m0 0 1 3h2v6l-3 9v14l2 8-2 4-2-3-3-8-1-6v-10l4-13z" fill="#19161A"/>
<path transform="translate(459,178)" d="m0 0 3 4 2 2v8l-2 3-2 10-3 7-2 2h-4l1-6 4-11 2-16z" fill="#16A69E"/>
<path transform="translate(965,432)" d="m0 0 7 1h21l16-1h6l-3 2-14 4h-17l-16-5z" fill="#19161A"/>
<path transform="translate(740,363)" d="m0 0h1v38l-2-1-2-17 1-5h-2v-9-1l2-1z" fill="#161316"/>
<path transform="translate(2030,264)" d="m0 0h18v5l-7 8-4-4v-4l-6-2z" fill="#181519"/>
<path transform="translate(1684,280)" d="m0 0 9 2 12 6 4 4h-2l-1 4-10-7-10-4-4-2 4-1z" fill="#181519"/>
<path transform="translate(1129,390)" d="m0 0 4 1 3 4-8 3-9 8h-4l1-4 5-5z" fill="#19161A"/>
<path transform="translate(1937,205)" d="m0 0h1l1 8v24l-1 16-2-1v-41z" fill="#19161A"/>
<path transform="translate(914,273)" d="m0 0h1l2 15v37l-3-3v-12-1-7l1-4v-8l-3-12z" fill="#19161A"/>
<path transform="translate(986,282)" d="m0 0 4 1-12 6-12 11h-2v-4l7-6 5-5 3-2z" fill="#181519"/>
<path transform="translate(1548,304)" d="m0 0 3 3-2 10-6 23-2-2-1-4 3-7 1-7h1l2-10z" fill="#141114"/>
<path transform="translate(1387,342)" d="m0 0h2l-1 8-5 18-2-3 1-2v-8l3-10z" fill="#19161A"/>
<path transform="translate(332,342)" d="m0 0 2 3 5 8 5 2-1 7-6-4-4-9z" fill="#FAFCFC"/>
<path transform="translate(1239,278)" d="m0 0 5 5 1 7-7 6 2-11z" fill="#19161A"/>
<path transform="translate(1556,283)" d="m0 0 1 4-5 19h-1l-1-14 1-3h2l1-4z" fill="#19161A"/>
<path transform="translate(1173,258)" d="m0 0h20l-3 1-1 2-3-1h-10l-10 3-8-1 3-2z" fill="#181519"/>
<path transform="translate(1830,295)" d="m0 0 3 1-6 7-5 7h-2l-2 4h-2l1-4h2l2-4 5-8z" fill="#151216"/>
<path transform="translate(1440,190)" d="m0 0 3 3 4 12-1 4-2-3-2 2-2-10z" fill="#151216"/>
<path transform="translate(936,374)" d="m0 0h2l1 4h-2v15h2l-1 6-2 3-1-6v-17z" fill="#181519"/>
<path transform="translate(915,327)" d="m0 0h1l-1 12-3 13-3-2v-5l2-3 1-7h2z" fill="#19161A"/>
<path transform="translate(940,411)" d="m0 0 3 1 3 5v2h2l5 5 12 7-3 1-9-5-9-8-4-6z" fill="#19161A"/>
<path transform="translate(1401,292)" d="m0 0 1 4-4 16-2-1-1-6 1-6h3l1-5z" fill="#19161A"/>
<path transform="translate(862,413)" d="m0 0 2 1-12 7-8 3-3-1 5-5 3-1v2l6-2z" fill="#171418"/>
<path transform="translate(955,277)" d="m0 0 2 1-4 7-2 1 1 2h-2l-2 4h-2l1-6z" fill="#141114"/>
<path transform="translate(1638,263)" d="m0 0 4 1-5 5-6 2v-3l-3-1z" fill="#19161A"/>
<path transform="translate(1394,314)" d="m0 0 2 3-2 11-2 3h-2v-6l3-6z" fill="#171418"/>
<path transform="translate(1642,286)" d="m0 0 3 1-12 7-3 2-1-4 3-2h3v-2z" fill="#171418"/>
<path transform="translate(1658,258)" d="m0 0h22l-3 1v2l-8-1-7 1z" fill="#19161A"/>
<path transform="translate(1548,304)" d="m0 0 3 3-2 10-1 4h-2v-8l2-7z" fill="#161317"/>
<path transform="translate(1040,282)" d="m0 0 5 2 4 5-4 1-9-6z" fill="#19161A"/>
<path transform="translate(363,328)" d="m0 0 2 2-8 6h-3l1-6 2-1v2z" fill="#FEFEFE"/>
<path transform="translate(1041,261)" d="m0 0 6 1 8 4-2 1-1 3-5-3-4-4z" fill="#171418"/>
<path transform="translate(1971,317)" d="m0 0 3 4-6 2-10 10v-3z" fill="#121013"/>
<path transform="translate(2042,412)" d="m0 0 4 5 2 2v4h-2v-2h-3v-2l-4-4z" fill="#181518"/>
<path transform="translate(875,250)" d="m0 0 6 2 2 4-1 3-4-1-3-6z" fill="#19161A"/>
<path transform="translate(1486,430)" d="m0 0 2 3h14l9 1v1h-26l-1-2h2z" fill="#181519"/>
<path transform="translate(714,383)" d="m0 0h1v12h-2l-1 3v-12z" fill="#19161A"/>
<path transform="translate(1408,188)" d="m0 0 3 4v6l-4-2-1-4z" fill="#151316"/>
<path transform="translate(1201,359)" d="m0 0 9 2 6 3v1l-6 1-3-2 1-1-7-3z" fill="#171418"/>
<path transform="translate(715,410)" d="m0 0h1v8l-4 5v-7l1-3h2z" fill="#19161A"/>
<path transform="translate(1053,314)" d="m0 0h1l1 19h-2l-1-5z" fill="#161317"/>
<path transform="translate(948,293)" d="m0 0 10 2-1 5-8-4z" fill="#19161A"/>
<path transform="translate(1830,295)" d="m0 0 3 1-6 7h-2l1-5z" fill="#131013"/>
<path transform="translate(1950,339)" d="m0 0 3 1-1 4-5 2v-2l-2-1z" fill="#19161A"/>
<path transform="translate(1713,297)" d="m0 0 4 3-1 4-4-2v-4z" fill="#19161A"/>
</svg>
